<mxfile host="app.diagrams.net" modified="2023-12-05T22:43:29.160Z" agent="Mozilla/5.0 (Windows NT 10.0; Win64; x64) AppleWebKit/537.36 (KHTML, like Gecko) Chrome/119.0.0.0 Safari/537.36 Edg/119.0.0.0" etag="Xpnqr3VwoQ8GYGCjWfmx" version="22.1.5" type="device">
  <diagram name="Страница — 1" id="4zZFffurlrl-bASGn2sT">
    <mxGraphModel dx="2824" dy="1474" grid="1" gridSize="10" guides="1" tooltips="1" connect="1" arrows="1" fold="1" page="1" pageScale="1" pageWidth="3300" pageHeight="2339" math="0" shadow="0">
      <root>
        <mxCell id="0" />
        <mxCell id="1" parent="0" />
        <mxCell id="2JCTQVkfjINHfoPqzNRB-9" style="edgeStyle=orthogonalEdgeStyle;rounded=0;orthogonalLoop=1;jettySize=auto;html=1;exitX=1;exitY=0.5;exitDx=0;exitDy=0;endArrow=none;endFill=0;" edge="1" parent="1" source="2JCTQVkfjINHfoPqzNRB-1" target="2JCTQVkfjINHfoPqzNRB-2">
          <mxGeometry relative="1" as="geometry" />
        </mxCell>
        <mxCell id="2JCTQVkfjINHfoPqzNRB-1" value="&lt;font style=&quot;font-size: 14px;&quot;&gt;:AuthController&lt;/font&gt;" style="rounded=0;whiteSpace=wrap;html=1;" vertex="1" parent="1">
          <mxGeometry x="130" y="810" width="140" height="60" as="geometry" />
        </mxCell>
        <mxCell id="2JCTQVkfjINHfoPqzNRB-10" style="edgeStyle=orthogonalEdgeStyle;rounded=0;orthogonalLoop=1;jettySize=auto;html=1;exitX=1;exitY=0.5;exitDx=0;exitDy=0;entryX=0;entryY=0.5;entryDx=0;entryDy=0;endArrow=none;endFill=0;" edge="1" parent="1" source="2JCTQVkfjINHfoPqzNRB-2" target="2JCTQVkfjINHfoPqzNRB-3">
          <mxGeometry relative="1" as="geometry" />
        </mxCell>
        <mxCell id="2JCTQVkfjINHfoPqzNRB-55" style="edgeStyle=orthogonalEdgeStyle;rounded=0;orthogonalLoop=1;jettySize=auto;html=1;exitX=0;exitY=0.75;exitDx=0;exitDy=0;entryX=1;entryY=0.75;entryDx=0;entryDy=0;endArrow=none;endFill=0;" edge="1" parent="1" source="2JCTQVkfjINHfoPqzNRB-2" target="2JCTQVkfjINHfoPqzNRB-1">
          <mxGeometry relative="1" as="geometry" />
        </mxCell>
        <mxCell id="2JCTQVkfjINHfoPqzNRB-2" value="&lt;font style=&quot;font-size: 14px;&quot;&gt;:Authorization&lt;/font&gt;" style="rounded=0;whiteSpace=wrap;html=1;" vertex="1" parent="1">
          <mxGeometry x="470" y="810" width="140" height="60" as="geometry" />
        </mxCell>
        <mxCell id="2JCTQVkfjINHfoPqzNRB-11" style="edgeStyle=orthogonalEdgeStyle;rounded=0;orthogonalLoop=1;jettySize=auto;html=1;exitX=1;exitY=0.5;exitDx=0;exitDy=0;endArrow=none;endFill=0;" edge="1" parent="1" source="2JCTQVkfjINHfoPqzNRB-3" target="2JCTQVkfjINHfoPqzNRB-4">
          <mxGeometry relative="1" as="geometry" />
        </mxCell>
        <mxCell id="2JCTQVkfjINHfoPqzNRB-56" style="edgeStyle=orthogonalEdgeStyle;rounded=0;orthogonalLoop=1;jettySize=auto;html=1;exitX=0;exitY=0.75;exitDx=0;exitDy=0;entryX=1;entryY=0.75;entryDx=0;entryDy=0;endArrow=none;endFill=0;" edge="1" parent="1" source="2JCTQVkfjINHfoPqzNRB-3" target="2JCTQVkfjINHfoPqzNRB-2">
          <mxGeometry relative="1" as="geometry" />
        </mxCell>
        <mxCell id="2JCTQVkfjINHfoPqzNRB-3" value=":&lt;font style=&quot;font-size: 14px;&quot;&gt;AuthStrategy&lt;/font&gt;" style="rounded=0;whiteSpace=wrap;html=1;" vertex="1" parent="1">
          <mxGeometry x="800" y="810" width="140" height="60" as="geometry" />
        </mxCell>
        <mxCell id="2JCTQVkfjINHfoPqzNRB-25" style="edgeStyle=orthogonalEdgeStyle;rounded=0;orthogonalLoop=1;jettySize=auto;html=1;exitX=0;exitY=0.75;exitDx=0;exitDy=0;entryX=1;entryY=0.75;entryDx=0;entryDy=0;endArrow=none;endFill=0;" edge="1" parent="1" source="2JCTQVkfjINHfoPqzNRB-4" target="2JCTQVkfjINHfoPqzNRB-3">
          <mxGeometry relative="1" as="geometry" />
        </mxCell>
        <mxCell id="2JCTQVkfjINHfoPqzNRB-4" value="&lt;font style=&quot;font-size: 14px;&quot;&gt;:PostgresUserRepo&lt;/font&gt;" style="rounded=0;whiteSpace=wrap;html=1;" vertex="1" parent="1">
          <mxGeometry x="1105" y="810" width="140" height="60" as="geometry" />
        </mxCell>
        <mxCell id="2JCTQVkfjINHfoPqzNRB-12" value="" style="endArrow=open;html=1;rounded=0;strokeWidth=1;jumpSize=6;startSize=4;endSize=3;endFill=0;" edge="1" parent="1">
          <mxGeometry width="50" height="50" relative="1" as="geometry">
            <mxPoint x="349.52" y="830" as="sourcePoint" />
            <mxPoint x="380" y="830" as="targetPoint" />
          </mxGeometry>
        </mxCell>
        <mxCell id="2JCTQVkfjINHfoPqzNRB-15" value="" style="endArrow=open;html=1;rounded=0;strokeWidth=1;jumpSize=6;startSize=4;endSize=3;endFill=0;" edge="1" parent="1">
          <mxGeometry width="50" height="50" relative="1" as="geometry">
            <mxPoint x="694.76" y="830" as="sourcePoint" />
            <mxPoint x="725.24" y="830" as="targetPoint" />
          </mxGeometry>
        </mxCell>
        <mxCell id="2JCTQVkfjINHfoPqzNRB-16" value="" style="endArrow=open;html=1;rounded=0;strokeWidth=1;jumpSize=6;startSize=4;endSize=3;endFill=0;" edge="1" parent="1">
          <mxGeometry width="50" height="50" relative="1" as="geometry">
            <mxPoint x="1007.26" y="830" as="sourcePoint" />
            <mxPoint x="1037.74" y="830" as="targetPoint" />
          </mxGeometry>
        </mxCell>
        <mxCell id="2JCTQVkfjINHfoPqzNRB-17" value="1:createUser()" style="text;html=1;strokeColor=none;fillColor=none;align=center;verticalAlign=middle;whiteSpace=wrap;rounded=0;" vertex="1" parent="1">
          <mxGeometry x="340" y="800" width="60" height="30" as="geometry" />
        </mxCell>
        <mxCell id="2JCTQVkfjINHfoPqzNRB-18" value="2:process()" style="text;html=1;strokeColor=none;fillColor=none;align=center;verticalAlign=middle;whiteSpace=wrap;rounded=0;" vertex="1" parent="1">
          <mxGeometry x="680" y="800" width="60" height="30" as="geometry" />
        </mxCell>
        <mxCell id="2JCTQVkfjINHfoPqzNRB-19" value="3:action()" style="text;html=1;strokeColor=none;fillColor=none;align=center;verticalAlign=middle;whiteSpace=wrap;rounded=0;" vertex="1" parent="1">
          <mxGeometry x="992.5" y="800" width="60" height="30" as="geometry" />
        </mxCell>
        <mxCell id="2JCTQVkfjINHfoPqzNRB-21" style="edgeStyle=orthogonalEdgeStyle;rounded=0;orthogonalLoop=1;jettySize=auto;html=1;exitX=1;exitY=0.25;exitDx=0;exitDy=0;entryX=1;entryY=0.75;entryDx=0;entryDy=0;startArrow=none;startFill=0;endArrow=none;endFill=0;" edge="1" parent="1" source="2JCTQVkfjINHfoPqzNRB-4" target="2JCTQVkfjINHfoPqzNRB-4">
          <mxGeometry relative="1" as="geometry">
            <Array as="points">
              <mxPoint x="1300" y="825" />
              <mxPoint x="1300" y="855" />
            </Array>
          </mxGeometry>
        </mxCell>
        <mxCell id="2JCTQVkfjINHfoPqzNRB-22" value="" style="endArrow=open;html=1;rounded=0;strokeWidth=1;jumpSize=6;startSize=4;endSize=3;endFill=0;" edge="1" parent="1">
          <mxGeometry width="50" height="50" relative="1" as="geometry">
            <mxPoint x="1037.5" y="860" as="sourcePoint" />
            <mxPoint x="1007.5" y="860" as="targetPoint" />
          </mxGeometry>
        </mxCell>
        <mxCell id="2JCTQVkfjINHfoPqzNRB-23" value="" style="endArrow=open;html=1;rounded=0;strokeWidth=1;jumpSize=6;startSize=4;endSize=3;endFill=0;" edge="1" parent="1">
          <mxGeometry width="50" height="50" relative="1" as="geometry">
            <mxPoint x="1250" y="814.83" as="sourcePoint" />
            <mxPoint x="1290" y="814.83" as="targetPoint" />
          </mxGeometry>
        </mxCell>
        <mxCell id="2JCTQVkfjINHfoPqzNRB-24" value="4:create()" style="text;html=1;strokeColor=none;fillColor=none;align=center;verticalAlign=middle;whiteSpace=wrap;rounded=0;" vertex="1" parent="1">
          <mxGeometry x="1240" y="790" width="60" height="30" as="geometry" />
        </mxCell>
        <mxCell id="2JCTQVkfjINHfoPqzNRB-27" value="" style="endArrow=open;html=1;rounded=0;strokeWidth=1;jumpSize=6;startSize=4;endSize=3;endFill=0;" edge="1" parent="1">
          <mxGeometry width="50" height="50" relative="1" as="geometry">
            <mxPoint x="725" y="860" as="sourcePoint" />
            <mxPoint x="695" y="860" as="targetPoint" />
          </mxGeometry>
        </mxCell>
        <mxCell id="2JCTQVkfjINHfoPqzNRB-28" value="" style="endArrow=open;html=1;rounded=0;strokeWidth=1;jumpSize=6;startSize=4;endSize=3;endFill=0;" edge="1" parent="1">
          <mxGeometry width="50" height="50" relative="1" as="geometry">
            <mxPoint x="380" y="860" as="sourcePoint" />
            <mxPoint x="350" y="860" as="targetPoint" />
          </mxGeometry>
        </mxCell>
        <mxCell id="2JCTQVkfjINHfoPqzNRB-29" value="5:AuthStrategy.action = User&amp;nbsp;" style="text;html=1;strokeColor=none;fillColor=none;align=center;verticalAlign=middle;whiteSpace=wrap;rounded=0;" vertex="1" parent="1">
          <mxGeometry x="940" y="860" width="165" height="30" as="geometry" />
        </mxCell>
        <mxCell id="2JCTQVkfjINHfoPqzNRB-30" value="6:Authorization.process = User&amp;nbsp;" style="text;html=1;strokeColor=none;fillColor=none;align=center;verticalAlign=middle;whiteSpace=wrap;rounded=0;" vertex="1" parent="1">
          <mxGeometry x="622" y="860" width="172.5" height="30" as="geometry" />
        </mxCell>
        <mxCell id="2JCTQVkfjINHfoPqzNRB-31" value="7:AuthController.createUser = User&amp;nbsp;" style="text;html=1;strokeColor=none;fillColor=none;align=center;verticalAlign=middle;whiteSpace=wrap;rounded=0;" vertex="1" parent="1">
          <mxGeometry x="271.88" y="860" width="196.25" height="30" as="geometry" />
        </mxCell>
        <mxCell id="2JCTQVkfjINHfoPqzNRB-32" style="edgeStyle=orthogonalEdgeStyle;rounded=0;orthogonalLoop=1;jettySize=auto;html=1;exitX=1;exitY=0.5;exitDx=0;exitDy=0;endArrow=none;endFill=0;" edge="1" parent="1" source="2JCTQVkfjINHfoPqzNRB-33" target="2JCTQVkfjINHfoPqzNRB-35">
          <mxGeometry relative="1" as="geometry" />
        </mxCell>
        <mxCell id="2JCTQVkfjINHfoPqzNRB-33" value="&lt;font style=&quot;font-size: 14px;&quot;&gt;:AuthController&lt;/font&gt;" style="rounded=0;whiteSpace=wrap;html=1;" vertex="1" parent="1">
          <mxGeometry x="130" y="1030" width="140" height="60" as="geometry" />
        </mxCell>
        <mxCell id="2JCTQVkfjINHfoPqzNRB-34" style="edgeStyle=orthogonalEdgeStyle;rounded=0;orthogonalLoop=1;jettySize=auto;html=1;exitX=1;exitY=0.5;exitDx=0;exitDy=0;entryX=0;entryY=0.5;entryDx=0;entryDy=0;endArrow=none;endFill=0;" edge="1" parent="1" source="2JCTQVkfjINHfoPqzNRB-35" target="2JCTQVkfjINHfoPqzNRB-37">
          <mxGeometry relative="1" as="geometry" />
        </mxCell>
        <mxCell id="2JCTQVkfjINHfoPqzNRB-58" style="edgeStyle=orthogonalEdgeStyle;rounded=0;orthogonalLoop=1;jettySize=auto;html=1;exitX=0;exitY=0.75;exitDx=0;exitDy=0;entryX=1;entryY=0.75;entryDx=0;entryDy=0;endArrow=none;endFill=0;" edge="1" parent="1" source="2JCTQVkfjINHfoPqzNRB-35" target="2JCTQVkfjINHfoPqzNRB-33">
          <mxGeometry relative="1" as="geometry" />
        </mxCell>
        <mxCell id="2JCTQVkfjINHfoPqzNRB-35" value="&lt;font style=&quot;font-size: 14px;&quot;&gt;:Authorization&lt;/font&gt;" style="rounded=0;whiteSpace=wrap;html=1;" vertex="1" parent="1">
          <mxGeometry x="470" y="1030" width="140" height="60" as="geometry" />
        </mxCell>
        <mxCell id="2JCTQVkfjINHfoPqzNRB-36" style="edgeStyle=orthogonalEdgeStyle;rounded=0;orthogonalLoop=1;jettySize=auto;html=1;exitX=1;exitY=0.5;exitDx=0;exitDy=0;endArrow=none;endFill=0;" edge="1" parent="1" source="2JCTQVkfjINHfoPqzNRB-37" target="2JCTQVkfjINHfoPqzNRB-39">
          <mxGeometry relative="1" as="geometry" />
        </mxCell>
        <mxCell id="2JCTQVkfjINHfoPqzNRB-57" style="edgeStyle=orthogonalEdgeStyle;rounded=0;orthogonalLoop=1;jettySize=auto;html=1;exitX=0;exitY=0.75;exitDx=0;exitDy=0;entryX=1;entryY=0.75;entryDx=0;entryDy=0;endArrow=none;endFill=0;" edge="1" parent="1" source="2JCTQVkfjINHfoPqzNRB-37" target="2JCTQVkfjINHfoPqzNRB-35">
          <mxGeometry relative="1" as="geometry" />
        </mxCell>
        <mxCell id="2JCTQVkfjINHfoPqzNRB-37" value=":&lt;font style=&quot;font-size: 14px;&quot;&gt;AuthStrategy&lt;/font&gt;" style="rounded=0;whiteSpace=wrap;html=1;" vertex="1" parent="1">
          <mxGeometry x="800" y="1030" width="140" height="60" as="geometry" />
        </mxCell>
        <mxCell id="2JCTQVkfjINHfoPqzNRB-38" style="edgeStyle=orthogonalEdgeStyle;rounded=0;orthogonalLoop=1;jettySize=auto;html=1;exitX=0;exitY=0.75;exitDx=0;exitDy=0;entryX=1;entryY=0.75;entryDx=0;entryDy=0;endArrow=none;endFill=0;" edge="1" parent="1" source="2JCTQVkfjINHfoPqzNRB-39" target="2JCTQVkfjINHfoPqzNRB-37">
          <mxGeometry relative="1" as="geometry" />
        </mxCell>
        <mxCell id="2JCTQVkfjINHfoPqzNRB-39" value="&lt;font style=&quot;font-size: 14px;&quot;&gt;:PostgresUserRepo&lt;/font&gt;" style="rounded=0;whiteSpace=wrap;html=1;" vertex="1" parent="1">
          <mxGeometry x="1105" y="1030" width="140" height="60" as="geometry" />
        </mxCell>
        <mxCell id="2JCTQVkfjINHfoPqzNRB-40" value="" style="endArrow=open;html=1;rounded=0;strokeWidth=1;jumpSize=6;startSize=4;endSize=3;endFill=0;" edge="1" parent="1">
          <mxGeometry width="50" height="50" relative="1" as="geometry">
            <mxPoint x="349.52" y="1050" as="sourcePoint" />
            <mxPoint x="380" y="1050" as="targetPoint" />
          </mxGeometry>
        </mxCell>
        <mxCell id="2JCTQVkfjINHfoPqzNRB-41" value="" style="endArrow=open;html=1;rounded=0;strokeWidth=1;jumpSize=6;startSize=4;endSize=3;endFill=0;" edge="1" parent="1">
          <mxGeometry width="50" height="50" relative="1" as="geometry">
            <mxPoint x="694.76" y="1050" as="sourcePoint" />
            <mxPoint x="725.24" y="1050" as="targetPoint" />
          </mxGeometry>
        </mxCell>
        <mxCell id="2JCTQVkfjINHfoPqzNRB-42" value="" style="endArrow=open;html=1;rounded=0;strokeWidth=1;jumpSize=6;startSize=4;endSize=3;endFill=0;" edge="1" parent="1">
          <mxGeometry width="50" height="50" relative="1" as="geometry">
            <mxPoint x="1007.26" y="1050" as="sourcePoint" />
            <mxPoint x="1037.74" y="1050" as="targetPoint" />
          </mxGeometry>
        </mxCell>
        <mxCell id="2JCTQVkfjINHfoPqzNRB-43" value="1:loginUser()" style="text;html=1;strokeColor=none;fillColor=none;align=center;verticalAlign=middle;whiteSpace=wrap;rounded=0;" vertex="1" parent="1">
          <mxGeometry x="340" y="1020" width="60" height="30" as="geometry" />
        </mxCell>
        <mxCell id="2JCTQVkfjINHfoPqzNRB-44" value="2:process()" style="text;html=1;strokeColor=none;fillColor=none;align=center;verticalAlign=middle;whiteSpace=wrap;rounded=0;" vertex="1" parent="1">
          <mxGeometry x="680" y="1020" width="60" height="30" as="geometry" />
        </mxCell>
        <mxCell id="2JCTQVkfjINHfoPqzNRB-45" value="3:action()" style="text;html=1;strokeColor=none;fillColor=none;align=center;verticalAlign=middle;whiteSpace=wrap;rounded=0;" vertex="1" parent="1">
          <mxGeometry x="992.5" y="1020" width="60" height="30" as="geometry" />
        </mxCell>
        <mxCell id="2JCTQVkfjINHfoPqzNRB-46" style="edgeStyle=orthogonalEdgeStyle;rounded=0;orthogonalLoop=1;jettySize=auto;html=1;exitX=1;exitY=0.25;exitDx=0;exitDy=0;entryX=1;entryY=0.75;entryDx=0;entryDy=0;startArrow=none;startFill=0;endArrow=none;endFill=0;" edge="1" parent="1" source="2JCTQVkfjINHfoPqzNRB-39" target="2JCTQVkfjINHfoPqzNRB-39">
          <mxGeometry relative="1" as="geometry">
            <Array as="points">
              <mxPoint x="1360" y="1045" />
              <mxPoint x="1360" y="1075" />
            </Array>
          </mxGeometry>
        </mxCell>
        <mxCell id="2JCTQVkfjINHfoPqzNRB-47" value="" style="endArrow=open;html=1;rounded=0;strokeWidth=1;jumpSize=6;startSize=4;endSize=3;endFill=0;" edge="1" parent="1">
          <mxGeometry width="50" height="50" relative="1" as="geometry">
            <mxPoint x="1037.5" y="1080" as="sourcePoint" />
            <mxPoint x="1007.5" y="1080" as="targetPoint" />
          </mxGeometry>
        </mxCell>
        <mxCell id="2JCTQVkfjINHfoPqzNRB-48" value="" style="endArrow=open;html=1;rounded=0;strokeWidth=1;jumpSize=6;startSize=4;endSize=3;endFill=0;" edge="1" parent="1">
          <mxGeometry width="50" height="50" relative="1" as="geometry">
            <mxPoint x="1280" y="1034.5" as="sourcePoint" />
            <mxPoint x="1320" y="1034.5" as="targetPoint" />
          </mxGeometry>
        </mxCell>
        <mxCell id="2JCTQVkfjINHfoPqzNRB-49" value="4:getAllUsers()" style="text;html=1;strokeColor=none;fillColor=none;align=center;verticalAlign=middle;whiteSpace=wrap;rounded=0;" vertex="1" parent="1">
          <mxGeometry x="1270" y="1010" width="60" height="30" as="geometry" />
        </mxCell>
        <mxCell id="2JCTQVkfjINHfoPqzNRB-50" value="" style="endArrow=open;html=1;rounded=0;strokeWidth=1;jumpSize=6;startSize=4;endSize=3;endFill=0;" edge="1" parent="1">
          <mxGeometry width="50" height="50" relative="1" as="geometry">
            <mxPoint x="725" y="1080" as="sourcePoint" />
            <mxPoint x="695" y="1080" as="targetPoint" />
          </mxGeometry>
        </mxCell>
        <mxCell id="2JCTQVkfjINHfoPqzNRB-51" value="" style="endArrow=open;html=1;rounded=0;strokeWidth=1;jumpSize=6;startSize=4;endSize=3;endFill=0;" edge="1" parent="1">
          <mxGeometry width="50" height="50" relative="1" as="geometry">
            <mxPoint x="380" y="1080" as="sourcePoint" />
            <mxPoint x="350" y="1080" as="targetPoint" />
          </mxGeometry>
        </mxCell>
        <mxCell id="2JCTQVkfjINHfoPqzNRB-52" value="5:AuthStrategy.action = User&amp;nbsp;" style="text;html=1;strokeColor=none;fillColor=none;align=center;verticalAlign=middle;whiteSpace=wrap;rounded=0;" vertex="1" parent="1">
          <mxGeometry x="940" y="1080" width="165" height="30" as="geometry" />
        </mxCell>
        <mxCell id="2JCTQVkfjINHfoPqzNRB-53" value="6:Authorization.process = User&amp;nbsp;" style="text;html=1;strokeColor=none;fillColor=none;align=center;verticalAlign=middle;whiteSpace=wrap;rounded=0;" vertex="1" parent="1">
          <mxGeometry x="622" y="1080" width="172.5" height="30" as="geometry" />
        </mxCell>
        <mxCell id="2JCTQVkfjINHfoPqzNRB-54" value="7:AuthController.createUser = User&amp;nbsp;" style="text;html=1;strokeColor=none;fillColor=none;align=center;verticalAlign=middle;whiteSpace=wrap;rounded=0;" vertex="1" parent="1">
          <mxGeometry x="273.75" y="1080" width="196.25" height="30" as="geometry" />
        </mxCell>
        <mxCell id="2JCTQVkfjINHfoPqzNRB-59" value="" style="swimlane;startSize=0;" vertex="1" parent="1">
          <mxGeometry x="120" y="740" width="1250" height="210" as="geometry" />
        </mxCell>
        <mxCell id="2JCTQVkfjINHfoPqzNRB-61" value="Регистрация" style="text;html=1;strokeColor=none;fillColor=none;align=center;verticalAlign=middle;whiteSpace=wrap;rounded=0;" vertex="1" parent="2JCTQVkfjINHfoPqzNRB-59">
          <mxGeometry x="10" width="60" height="30" as="geometry" />
        </mxCell>
        <mxCell id="2JCTQVkfjINHfoPqzNRB-60" value="" style="swimlane;startSize=0;" vertex="1" parent="1">
          <mxGeometry x="120" y="950" width="1250" height="210" as="geometry" />
        </mxCell>
        <mxCell id="2JCTQVkfjINHfoPqzNRB-62" value="Вход" style="text;html=1;strokeColor=none;fillColor=none;align=center;verticalAlign=middle;whiteSpace=wrap;rounded=0;" vertex="1" parent="2JCTQVkfjINHfoPqzNRB-60">
          <mxGeometry x="10" width="60" height="30" as="geometry" />
        </mxCell>
      </root>
    </mxGraphModel>
  </diagram>
</mxfile>
